<?xml version="1.0" standalone="no"?>
<!DOCTYPE svg PUBLIC "-//W3C//DTD SVG 20010904//EN"
 "http://www.w3.org/TR/2001/REC-SVG-20010904/DTD/svg10.dtd">
<svg version="1.0" xmlns="http://www.w3.org/2000/svg"
 width="700.000000pt" height="700.000000pt" viewBox="0 0 700.000000 700.000000"
 preserveAspectRatio="xMidYMid meet">
<metadata>
Created by potrace 1.14, written by Peter Selinger 2001-2017
</metadata>
<g transform="translate(0.000000,700.000000) scale(0.100000,-0.100000)"
fill="#000000" stroke="none">
<path d="M2770 5704 c-213 -57 -373 -262 -306 -391 22 -43 79 -88 129 -102 89
-26 85 -26 56 5 -81 88 -85 191 -13 277 64 76 199 146 247 128 29 -11 58 -69
62 -124 3 -42 -17 -109 -42 -138 -15 -17 -18 -89 -4 -89 16 0 88 73 104 105
47 95 36 231 -26 307 -32 40 -110 48 -207 22z"/>
<path d="M5498 5625 c-2 -2 -32 -5 -68 -8 -215 -18 -399 -147 -461 -323 -23
-65 -32 -117 -32 -194 -1 -72 13 -190 21 -189 4 0 26 30 50 67 99 155 258 279
397 313 118 28 264 10 373 -45 216 -109 369 -310 444 -584 30 -106 32 -398 5
-512 -30 -124 -86 -277 -139 -379 -51 -100 -176 -294 -223 -346 -106 -120 36
-16 187 136 162 164 269 337 331 535 91 289 47 690 -106 974 -30 56 -102 166
-121 186 -6 6 -35 39 -64 73 -59 67 -209 184 -287 224 -70 35 -137 56 -198 63
-29 3 -64 7 -79 9 -15 1 -28 2 -30 0z"/>
<path d="M3777 5464 c-1 -1 -47 -4 -102 -8 -89 -5 -191 -18 -250 -30 -248 -51
-446 -132 -650 -263 -363 -236 -600 -507 -737 -843 -28 -66 -73 -211 -83 -265
-46 -238 -51 -316 -46 -624 0 -46 4 -81 8 -77 4 3 17 55 30 114 13 59 25 118
28 131 15 63 108 331 146 418 246 565 617 942 1123 1143 89 35 272 84 356 95
96 13 303 13 391 0 289 -43 567 -159 817 -341 34 -25 62 -42 62 -39 0 14 -63
122 -106 181 -154 217 -340 331 -612 379 -113 19 -363 39 -375 29z"/>
<path d="M3849 5027 c-2 -3 -33 -8 -69 -11 -95 -10 -231 -42 -350 -83 -535
-182 -993 -612 -1286 -1208 -58 -119 -157 -355 -148 -355 2 0 31 37 65 83 55
71 184 233 199 247 3 3 36 41 74 85 144 165 429 436 581 552 156 119 278 198
414 267 173 89 368 153 516 171 33 4 71 9 85 11 96 14 343 2 465 -22 11 -2 34
-7 50 -10 116 -21 346 -122 456 -200 85 -61 224 -203 277 -284 142 -215 211
-475 207 -773 -3 -177 -13 -261 -50 -436 -27 -131 -43 -190 -89 -346 -2 -5 -6
-18 -11 -28 -4 -10 -5 -20 -2 -23 8 -8 81 149 128 272 41 109 77 238 94 339 3
17 8 37 10 45 18 67 25 361 11 485 -25 231 -111 477 -227 650 -175 262 -426
435 -759 520 -70 18 -74 19 -138 30 -23 4 -54 9 -70 12 -36 6 -427 15 -433 10z"/>
<path d="M1985 2789 c3 -251 6 -315 21 -402 3 -20 7 -47 9 -60 32 -229 111
-450 215 -601 46 -67 137 -161 201 -209 36 -27 156 -82 219 -101 107 -32 288
-47 393 -31 110 16 118 17 202 36 116 25 318 99 430 157 67 35 67 36 -2 22
-188 -37 -461 -44 -608 -15 -324 65 -544 199 -730 448 -76 101 -157 248 -202
365 -24 65 -69 206 -78 247 -38 180 -56 289 -59 367 -1 14 -4 29 -8 33 -4 4
-5 -111 -3 -256z"/>
<path d="M1137 2949 c-146 -87 -422 -142 -719 -144 -49 0 -87 -3 -85 -6 9 -21
282 -249 507 -423 149 -115 765 -573 843 -626 12 -8 63 -44 112 -80 50 -36
122 -88 160 -114 l70 -48 -97 93 c-54 52 -161 155 -240 229 -78 74 -189 180
-247 236 -58 56 -131 125 -161 154 -77 73 -327 310 -423 402 -45 42 -79 79
-77 81 3 3 28 7 55 11 117 13 196 35 254 68 l34 19 76 -58 c42 -32 81 -62 86
-66 6 -4 65 -49 132 -100 500 -379 475 -364 314 -193 -31 32 -60 64 -66 70
-10 11 -217 236 -245 266 -51 55 -202 218 -217 236 l-18 21 -48 -28z"/>
</g>
</svg>
